<?xml version="1.0" standalone="no"?>
<!DOCTYPE svg PUBLIC "-//W3C//DTD SVG 20010904//EN"
 "http://www.w3.org/TR/2001/REC-SVG-20010904/DTD/svg10.dtd">
<svg version="1.0" xmlns="http://www.w3.org/2000/svg"
 width="900.000000pt" height="1600.000000pt" viewBox="0 0 900.000000 1600.000000"
 preserveAspectRatio="xMidYMid meet">

<g transform="translate(0.000000,1600.000000) scale(0.100000,-0.100000)"
fill="#000000" stroke="none">
<path d="M0 8796 l0 -7204 29 -7 c47 -10 81 3 81 32 0 20 4 24 18 18 9 -4 23
-8 29 -8 17 -1 -5 -27 -23 -27 -7 0 -15 -9 -19 -19 -4 -12 -12 -18 -21 -14 -7
3 -14 0 -14 -6 0 -6 6 -11 14 -11 24 0 25 -26 3 -40 -12 -8 -27 -13 -33 -12
-17 3 -37 -25 -31 -42 4 -9 -2 -17 -14 -21 -19 -6 -19 -21 -19 -721 l0 -714
4500 0 4500 0 0 2220 c0 1473 -3 2220 -10 2220 -5 0 -10 7 -10 15 0 8 5 15 10
15 7 0 10 1928 10 5765 l0 5765 -4500 0 -4500 0 0 -7204z m6789 3519 c-9 -9
-281 -34 -474 -44 -613 -32 -1358 -51 -1935 -51 -727 1 -1212 24 -929 44 52 3
477 11 944 16 1107 13 2239 31 2244 36 2 2 38 4 79 4 42 0 73 -2 71 -5z m871
-865 c35 -5 -9 -7 -125 -8 -99 0 -189 3 -200 8 -24 11 240 10 325 0z m20 -60
c73 -5 33 -7 -167 -8 -166 -1 -264 2 -268 8 -7 12 285 12 435 0z m-1233 -116
c-3 -3 -12 -4 -19 -1 -8 3 -5 6 6 6 11 1 17 -2 13 -5z m-204 -74 l187 0 0 -89
c0 -129 -9 -181 -31 -181 -9 0 -24 -3 -33 -6 -14 -5 -14 -8 -1 -27 8 -11 12
-31 9 -43 -6 -23 10 -42 21 -24 3 6 7 24 7 40 2 48 18 34 18 -15 l0 -45 -65 3
c-47 1 -64 5 -60 14 3 10 0 10 -15 1 -16 -11 -22 -9 -34 7 -8 11 -18 17 -22
12 -4 -4 -2 -7 4 -7 7 0 12 -4 12 -9 0 -5 -21 -9 -47 -8 l-48 2 -3 -55 c-2
-38 -6 -50 -12 -40 -6 9 -10 10 -10 3 0 -21 19 -25 146 -27 107 -2 124 0 124
13 0 14 1 14 10 1 5 -8 10 -41 10 -72 0 -58 0 -58 -30 -58 -86 0 -595 32 -660
41 -41 6 -82 11 -90 10 -8 0 -30 2 -48 5 -33 5 -34 7 -30 45 3 32 0 39 -14 39
-10 0 -18 7 -18 16 0 12 8 14 35 10 27 -5 37 -2 42 10 6 15 38 14 91 -3 14 -4
15 -3 2 6 -21 14 -10 20 25 14 26 -5 27 -7 10 -14 -17 -6 -16 -8 8 -8 17 -1
27 4 27 13 0 12 18 15 90 15 50 0 101 -4 113 -8 23 -9 102 0 114 13 12 11 -8
20 -46 21 -43 0 -45 14 -3 17 15 1 -4 4 -43 8 l-70 6 83 2 c76 2 106 14 65 26
-34 10 -175 26 -228 26 -31 0 -59 6 -67 13 -7 8 -20 16 -28 20 -12 4 -12 6 2
6 28 2 28 17 0 16 -23 0 -27 5 -30 33 -2 24 1 32 12 32 9 0 16 5 16 10 0 6 -4
10 -10 10 -5 0 -10 9 -10 20 0 13 7 20 20 20 14 0 20 7 20 21 0 21 4 22 63 16
37 -3 52 -2 37 3 -14 4 -41 8 -61 9 -33 1 -36 3 -37 33 0 17 -7 35 -14 40 -8
6 47 7 147 4 88 -3 244 -6 348 -6z m225 -112 c-2 -41 0 -62 5 -52 5 8 9 35 10
60 2 42 17 65 17 24 0 -11 4 -20 9 -20 5 0 11 -10 14 -22 3 -22 4 -22 12 -3
17 38 28 44 117 62 15 3 25 9 22 14 -6 10 269 10 305 0 13 -3 -41 -6 -120 -5
-159 2 -168 4 114 -22 l67 -6 0 -79 c0 -64 -3 -79 -15 -79 -19 0 -22 -79 -2
-82 6 0 -8 -4 -33 -8 l-45 -7 44 -1 c73 -3 37 -15 -46 -16 -64 -1 -78 -4 -81
-17 -3 -14 4 -16 44 -11 40 4 46 3 41 -11 -3 -9 -1 -18 6 -21 7 -2 -12 -5 -41
-5 -45 -1 -53 -4 -50 -18 2 -13 15 -19 43 -21 22 -2 44 -8 50 -13 5 -5 25 -8
45 -8 l35 2 -40 7 c-27 5 0 8 84 9 136 1 201 -15 201 -51 0 -10 5 -18 10 -18
6 0 10 -25 10 -55 l0 -56 36 3 36 2 -6 63 -7 63 33 0 c18 0 56 -6 83 -14 48
-13 49 -14 25 -24 -24 -10 -24 -11 -2 -11 12 -1 22 -6 22 -11 0 -7 29 -10 78
-8 60 2 77 6 77 18 0 11 12 15 45 16 l45 2 -45 -8 -45 -7 43 -1 42 -2 0 -40 0
-40 -77 -1 -78 -2 73 -7 c40 -5 76 -11 80 -15 4 -4 -18 -5 -48 -1 -30 3 -77 6
-105 7 -40 1 -45 3 -25 9 14 5 -36 6 -115 4 -77 -3 -252 0 -390 5 -137 6 -311
13 -385 16 -177 7 -259 15 -265 25 -3 4 -2 29 1 54 l7 47 50 -5 c29 -3 57 0
68 7 14 9 22 9 27 1 11 -17 62 -27 63 -12 0 10 2 10 5 1 3 -7 11 -10 18 -7 8
3 16 -4 19 -15 3 -12 10 -21 17 -21 7 0 9 8 5 21 -5 15 -4 19 4 14 7 -4 18 -2
26 5 10 8 18 8 34 -2 23 -14 31 -9 34 21 1 14 8 21 21 21 20 0 20 0 0 15 -10
8 -15 15 -10 15 5 0 3 6 -3 14 -10 11 -8 16 9 21 20 6 20 8 -11 31 -29 21 -48
64 -28 64 3 0 9 13 11 28 3 19 0 29 -9 29 -8 0 -11 -7 -7 -19 8 -27 -9 -22
-23 7 -10 22 -9 25 10 26 22 0 22 1 -1 11 -13 7 -26 24 -29 39 -5 26 -7 27
-22 12 -11 -12 -13 -17 -3 -21 6 -2 12 -9 12 -15 0 -8 -4 -7 -12 1 -7 7 -28
13 -47 13 -20 1 -28 3 -18 6 14 4 26 23 13 23 -18 0 -65 -24 -60 -31 3 -5 0
-9 -6 -9 -27 0 -2 33 35 46 47 16 69 18 60 4 -3 -6 1 -7 9 -4 34 13 13 24 -47
24 -88 0 -117 -15 -117 -61 0 -32 -3 -36 -25 -36 -14 0 -26 6 -29 16 -2 9 -3
0 -1 -20 2 -25 -1 -36 -11 -36 -8 0 -14 4 -14 9 0 4 4 8 10 8 6 0 6 9 1 23 -5
13 -6 72 -3 133 4 60 8 98 10 84 2 -13 2 -55 0 -92z m495 92 c31 0 57 -4 57
-9 0 -6 -19 -8 -42 -6 -24 2 -145 5 -270 7 -126 1 -228 7 -228 12 0 4 95 6
213 2 116 -3 238 -6 270 -6z m200 -17 c-13 -2 -35 -2 -50 0 -16 2 -5 4 22 4
28 0 40 -2 28 -4z m-625 -10 c-10 -2 -28 -2 -40 0 -13 2 -5 4 17 4 22 1 32 -1
23 -4z m12 -200 c0 -5 -11 -13 -24 -19 -19 -9 -23 -9 -19 2 2 7 12 15 21 17
10 3 18 5 20 6 1 0 2 -2 2 -6z m-877 -10 c-7 -2 -19 -2 -25 0 -7 3 -2 5 12 5
14 0 19 -2 13 -5z m74 -39 c-3 -3 -12 -4 -19 -1 -8 3 -5 6 6 6 11 1 17 -2 13
-5z m76 -61 c-7 -2 -19 -2 -25 0 -7 3 -2 5 12 5 14 0 19 -2 13 -5z m47 -3 c8
-5 12 -11 9 -14 -3 -3 -14 1 -25 9 -21 16 -8 20 16 5z m780 -5 c-7 -8 -20 -15
-29 -15 -11 1 -8 5 9 15 32 18 35 18 20 0z m-1057 -2 c-7 -2 -19 -2 -25 0 -7
3 -2 5 12 5 14 0 19 -2 13 -5z m1860 0 c-7 -2 -19 -2 -25 0 -7 3 -2 5 12 5 14
0 19 -2 13 -5z m-1616 -9 c-3 -3 -12 -4 -19 -1 -8 3 -5 6 6 6 11 1 17 -2 13
-5z m123 -4 c0 -5 -10 -10 -22 -10 -19 0 -20 2 -8 10 19 13 30 13 30 0z m540
-1 c0 -3 -14 -6 -32 -7 -22 0 -28 2 -18 8 15 10 50 9 50 -1z m60 -4 c0 -2 -9
-19 -20 -37 -17 -29 -20 -30 -20 -11 0 12 5 25 11 29 8 4 7 9 -2 15 -10 6 -8
9 9 9 12 0 22 -2 22 -5z m460 -22 c0 -18 -35 -16 -50 2 -11 13 -9 15 19 13 17
-1 31 -8 31 -15z m320 7 c22 -7 21 -8 -12 -9 -20 -1 -40 4 -43 9 -7 12 19 12
55 0z m-1145 -10 c3 -5 1 -10 -4 -10 -6 0 -11 5 -11 10 0 6 2 10 4 10 3 0 8
-4 11 -10z m252 -22 c-3 -7 -5 -2 -5 12 0 14 2 19 5 13 2 -7 2 -19 0 -25z
m766 25 c-13 -2 -33 -2 -45 0 -13 2 -3 4 22 4 25 0 35 -2 23 -4z m-926 -9 c-3
-3 -12 -4 -19 -1 -8 3 -5 6 6 6 11 1 17 -2 13 -5z m123 -8 c0 -3 -4 -8 -10
-11 -5 -3 -10 -1 -10 4 0 6 5 11 10 11 6 0 10 -2 10 -4z m90 -6 c0 -5 -4 -10
-10 -10 -5 0 -10 5 -10 10 0 6 5 10 10 10 6 0 10 -4 10 -10z m708 3 c-10 -2
-28 -2 -40 0 -13 2 -5 4 17 4 22 1 32 -1 23 -4z m119 -4 c-24 -6 -45 -5 -55 1
-12 7 -2 9 38 9 55 -1 55 -1 17 -10z m806 -6 c-23 -2 -64 -2 -90 0 -26 2 -7 3
42 3 50 0 71 -1 48 -3z m94 1 c-3 -3 -12 -4 -19 -1 -8 3 -5 6 6 6 11 1 17 -2
13 -5z m-1657 -14 c0 -5 -5 -10 -11 -10 -5 0 -7 5 -4 10 3 6 8 10 11 10 2 0 4
-4 4 -10z m37 -12 c-3 -8 -6 -5 -6 6 -1 11 2 17 5 13 3 -3 4 -12 1 -19z m-317
2 c0 -5 -7 -10 -15 -10 -8 0 -15 5 -15 10 0 6 7 10 15 10 8 0 15 -4 15 -10z
m70 -2 c0 -4 -7 -8 -15 -8 -8 0 -15 4 -15 8 0 5 7 9 15 9 8 0 15 -4 15 -9z
m121 2 c5 0 9 -4 9 -9 0 -5 -13 -9 -30 -9 -16 1 -30 4 -30 8 0 13 14 21 28 15
7 -3 18 -5 23 -5z m276 -12 c-3 -8 -6 -5 -6 6 -1 11 2 17 5 13 3 -3 4 -12 1
-19z m1276 15 c-7 -2 -19 -2 -25 0 -7 3 -2 5 12 5 14 0 19 -2 13 -5z m-533
-23 c24 -7 23 -7 -13 -15 -40 -8 -53 -3 -42 14 7 12 18 12 55 1z m898 -37
c-16 -2 -40 -2 -55 0 -16 2 -3 4 27 4 30 0 43 -2 28 -4z m-537 -12 c-7 -5 -10
-14 -7 -20 4 -6 2 -11 -3 -11 -6 0 -11 9 -11 20 0 12 7 20 18 20 13 0 14 -2 3
-9z m-4164 -23 c-3 -8 -6 -5 -6 6 -1 11 2 17 5 13 3 -3 4 -12 1 -19z m3921 15
c-10 -2 -18 -9 -18 -14 0 -6 -4 -7 -10 -4 -19 12 -10 25 18 24 16 -1 20 -3 10
-6z m192 -13 c0 -5 -4 -10 -10 -10 -5 0 -10 5 -10 10 0 6 5 10 10 10 6 0 10
-4 10 -10z m-2530 -56 c0 -2 -11 -4 -25 -4 -14 0 -25 4 -25 9 0 4 11 6 25 3
14 -2 25 -6 25 -8z m37 0 c-3 -3 -12 -4 -19 -1 -8 3 -5 6 6 6 11 1 17 -2 13
-5z m140 -10 c-3 -3 -12 -4 -19 -1 -8 3 -5 6 6 6 11 1 17 -2 13 -5z m776 -20
c125 -5 167 -10 167 -20 0 -13 -44 -12 -295 6 -60 4 -162 8 -225 10 -63 1
-144 6 -180 10 -70 10 225 6 533 -6z m-2888 -15 c-4 -5 -13 -9 -22 -9 -13 0
-13 3 -3 15 13 15 35 11 25 -6z m3445 -19 c80 -5 242 -15 360 -20 118 -6 231
-15 250 -20 35 -9 4 -9 -190 5 -36 2 -189 10 -340 16 -151 6 -291 12 -310 14
-19 2 -56 3 -82 4 -29 1 -48 6 -48 12 0 12 57 11 360 -11z m1033 3 c-7 -2 -19
-2 -25 0 -7 3 -2 5 12 5 14 0 19 -2 13 -5z m-325 -50 c-10 -2 -28 -2 -40 0
-13 2 -5 4 17 4 22 1 32 -1 23 -4z m187 -8 c6 -2 -19 -3 -55 -3 -36 1 -57 4
-47 7 17 6 80 4 102 -4z m154 -11 c2 -2 -10 -4 -27 -4 -18 0 -32 5 -32 10 0 9
47 4 59 -6z m-2642 -421 c-2 -38 -3 -7 -3 67 0 74 1 105 3 68 2 -38 2 -98 0
-135z m2639 -18 c-11 -192 -16 -248 -25 -280 l-9 -30 -1 35 c0 19 6 94 14 165
8 72 15 162 16 200 1 39 4 61 6 50 3 -11 2 -74 -1 -140z m76 40 c-8 -54 -25
-55 -18 -1 3 27 7 58 7 70 1 15 3 13 9 -9 4 -16 5 -43 2 -60z m36 -28 c3 -32
7 -37 28 -37 21 0 24 -4 24 -40 0 -28 -4 -40 -14 -40 -10 0 -16 -22 -21 -80
-4 -44 -11 -80 -16 -80 -5 0 -9 -18 -9 -40 0 -22 -4 -40 -10 -40 -5 0 -10 -12
-11 -27 0 -16 -3 -22 -6 -15 -5 13 -33 17 -33 5 0 -17 19 -35 29 -29 6 4 11 2
11 -3 0 -6 -15 -11 -34 -11 -33 0 -34 1 -27 28 5 15 6 42 3 60 -2 18 0 32 6
32 6 0 9 26 6 67 -4 81 14 205 33 216 7 4 13 24 13 43 0 48 24 40 28 -9z
m-5261 -59 c-3 -8 -6 -5 -6 6 -1 11 2 17 5 13 3 -3 4 -12 1 -19z m750 -20 c-3
-8 -6 -5 -6 6 -1 11 2 17 5 13 3 -3 4 -12 1 -19z m4593 8 c0 -8 -4 -18 -10
-21 -5 -3 -10 3 -10 14 0 12 5 21 10 21 6 0 10 -6 10 -14z m30 -8 c0 -19 -2
-20 -10 -8 -13 19 -13 30 0 30 6 0 10 -10 10 -22z m-4410 -248 c0 -5 -4 -10
-10 -10 -5 0 -10 5 -10 10 0 6 5 10 10 10 6 0 10 -4 10 -10z m4147 -92 c-2
-13 -4 -5 -4 17 -1 22 1 32 4 23 2 -10 2 -28 0 -40z m-1017 12 c0 -5 -11 -10
-25 -10 -14 0 -25 5 -25 10 0 6 11 10 25 10 14 0 25 -4 25 -10z m987 -337 c-3
-10 -5 -4 -5 12 0 17 2 24 5 18 2 -7 2 -21 0 -30z m-4 -63 c-3 -12 -8 -19 -11
-16 -5 6 5 36 12 36 2 0 2 -9 -1 -20z m-4434 -148 c3 -5 13 -12 21 -16 73 -35
95 -54 93 -79 -1 -17 3 -27 12 -27 7 0 17 -10 21 -22 3 -13 13 -31 22 -40 8
-10 10 -18 4 -18 -5 0 -8 -9 -5 -20 3 -11 9 -20 14 -20 5 0 9 -8 9 -18 0 -16
-9 -19 -57 -21 -32 -1 -86 -11 -121 -22 -34 -12 -69 -18 -77 -15 -18 6 -20 36
-3 36 6 0 -1 14 -18 31 -23 24 -36 30 -61 27 -20 -3 -34 1 -37 9 -3 7 0 13 6
13 7 0 7 4 0 13 -6 7 -13 40 -15 74 -5 72 9 91 78 118 40 15 103 13 114 -3z
m3606 -12 c3 -5 1 -10 -4 -10 -6 0 -11 5 -11 10 0 6 2 10 4 10 3 0 8 -4 11
-10z m8 -35 c-3 -9 -8 -14 -10 -11 -3 3 -2 9 2 15 9 16 15 13 8 -4z m-516 -51
c-3 -3 -12 -4 -19 -1 -8 3 -5 6 6 6 11 1 17 -2 13 -5z m533 2 c0 -2 -11 -6
-25 -8 -14 -3 -25 -1 -25 3 0 5 11 9 25 9 14 0 25 -2 25 -4z m47 -78 c-3 -8
-6 -5 -6 6 -1 11 2 17 5 13 3 -3 4 -12 1 -19z m-1433 -77 c4 -5 -12 -7 -36 -4
-57 8 -61 13 -10 13 22 0 43 -4 46 -9z m76 -11 l25 -8 -25 -1 c-14 0 -32 4
-40 9 -13 9 -13 10 0 9 8 -1 26 -5 40 -9z m123 -17 c-7 -2 -21 -2 -30 0 -10 3
-4 5 12 5 17 0 24 -2 18 -5z m116 -19 c10 -9 -45 -3 -59 6 -11 7 -5 8 20 4 19
-4 37 -8 39 -10z m89 -11 c-16 -2 -40 -2 -55 0 -16 2 -3 4 27 4 30 0 43 -2 28
-4z m190 -19 c59 -9 114 -20 122 -25 19 -11 -74 -1 -114 12 -16 5 -50 9 -75 9
-25 0 -53 5 -61 10 -22 14 1 13 128 -6z m216 -33 c3 -4 -6 -6 -19 -3 -14 2
-25 6 -25 8 0 8 39 4 44 -5z m71 -11 c7 -12 -12 -12 -40 0 -18 8 -17 9 7 9 15
1 30 -3 33 -9z m148 -17 c-13 -2 -33 -2 -45 0 -13 2 -3 4 22 4 25 0 35 -2 23
-4z m-3153 -23 c0 -5 -10 -10 -22 -9 -22 0 -22 1 -3 9 11 5 21 9 23 9 1 1 2
-3 2 -9z m3440 -20 c96 -16 148 -27 115 -25 -61 6 -228 30 -300 45 -99 20 25
6 185 -20z m-1223 -32 c-3 -8 -6 -5 -6 6 -1 11 2 17 5 13 3 -3 4 -12 1 -19z
m260 16 c-3 -3 -12 -4 -19 -1 -8 3 -5 6 6 6 11 1 17 -2 13 -5z m-116 -40 c-5
-16 -10 -21 -10 -12 -1 18 10 51 15 45 2 -1 -1 -16 -5 -33z m78 -14 c0 -10 -3
-8 -9 5 -12 27 -12 43 0 25 5 -8 9 -22 9 -30z m194 33 c-7 -2 -19 -2 -25 0 -7
3 -2 5 12 5 14 0 19 -2 13 -5z m1150 -10 c26 -3 49 -9 52 -13 4 -7 -67 1 -165
19 l-55 10 60 -5 c33 -3 81 -8 108 -11z m-3163 -13 c0 -5 -5 -10 -11 -10 -5 0
-7 5 -4 10 3 6 8 10 11 10 2 0 4 -4 4 -10z m1980 -37 c0 -32 -5 -28 -14 10 -4
19 -3 26 4 22 5 -3 10 -18 10 -32z m213 30 c-7 -2 -21 -2 -30 0 -10 3 -4 5 12
5 17 0 24 -2 18 -5z m1105 0 c-10 -2 -28 -2 -40 0 -13 2 -5 4 17 4 22 1 32 -1
23 -4z m120 -20 c-10 -2 -26 -2 -35 0 -10 3 -2 5 17 5 19 0 27 -2 18 -5z
m-1201 -35 c-3 -7 -5 -2 -5 12 0 14 2 19 5 13 2 -7 2 -19 0 -25z m-80 -10 c-3
-7 -5 -2 -5 12 0 14 2 19 5 13 2 -7 2 -19 0 -25z m-2584 -23 c-3 -9 -8 -14
-10 -11 -3 3 -2 9 2 15 9 16 15 13 8 -4z m3031 -11 c9 -23 4 -24 -16 -2 -14
14 -15 18 -4 18 8 0 17 -7 20 -16z m-154 -4 c0 -5 -2 -10 -4 -10 -3 0 -8 5
-11 10 -3 6 -1 10 4 10 6 0 11 -4 11 -10z m117 -27 c-8 -7 -35 9 -41 23 -4 11
0 11 20 -2 13 -9 23 -18 21 -21z m133 0 c0 -32 -12 -23 -16 12 -1 14 2 23 7
20 5 -4 9 -18 9 -32z m-2680 3 c0 -7 -9 -16 -20 -19 -23 -6 -26 3 -8 21 16 16
28 15 28 -2z m2877 -28 c-3 -8 -6 -5 -6 6 -1 11 2 17 5 13 3 -3 4 -12 1 -19z
m90 -4 c3 -8 0 -21 -8 -27 -8 -7 -11 -8 -7 -3 4 5 3 17 -3 27 -7 13 -6 19 1
19 6 0 13 -7 17 -16z m-340 0 c-3 -3 -12 -4 -19 -1 -8 3 -5 6 6 6 11 1 17 -2
13 -5z m398 -4 c-3 -5 -11 -10 -16 -10 -6 0 -7 5 -4 10 3 6 11 10 16 10 6 0 7
-4 4 -10z m-3378 -72 c-3 -8 -6 -5 -6 6 -1 11 2 17 5 13 3 -3 4 -12 1 -19z
m-550 -49 c20 -31 26 -51 25 -90 0 -27 3 -47 7 -44 5 2 11 -6 13 -20 9 -45
-56 -42 -74 4 -14 34 -20 191 -8 191 5 0 22 -18 37 -41z m934 -22 c-13 -13
-15 1 -4 30 7 17 8 17 11 -1 2 -10 -1 -23 -7 -29z m-344 -11 c-3 -7 -17 -13
-31 -13 -22 0 -24 2 -15 14 7 8 18 12 26 9 7 -3 13 2 14 12 0 11 2 12 6 4 3
-7 3 -19 0 -26z m-1167 -16 c0 -5 -7 -10 -15 -10 -8 0 -15 5 -15 10 0 6 7 10
15 10 8 0 15 -4 15 -10z m816 -68 c-8 -7 -76 8 -76 17 0 5 18 4 40 -1 23 -6
39 -13 36 -16z m-49 -40 c36 -27 16 -46 -40 -38 -45 7 -46 8 -35 32 13 28 43
31 75 6z m-100 -18 c-3 -3 -12 -4 -19 -1 -8 3 -5 6 6 6 11 1 17 -2 13 -5z
m-621 -30 l29 -16 -30 7 c-16 3 -34 11 -39 16 -16 15 9 11 40 -7z m734 -184
c-8 -5 -19 -10 -25 -10 -5 0 -3 5 5 10 8 5 20 10 25 10 6 0 3 -5 -5 -10z
m3683 -57 c-7 -2 -19 -2 -25 0 -7 3 -2 5 12 5 14 0 19 -2 13 -5z m50 -10 c-7
-2 -19 -2 -25 0 -7 3 -2 5 12 5 14 0 19 -2 13 -5z m54 -9 c-3 -3 -12 -4 -19
-1 -8 3 -5 6 6 6 11 1 17 -2 13 -5z m278 -39 c204 -32 376 -63 485 -85 25 -5
58 -12 74 -15 46 -10 25 -13 -29 -5 -27 4 -117 17 -200 29 -82 12 -172 26
-200 31 -27 6 -108 21 -180 35 -201 38 -222 43 -195 44 14 1 124 -15 245 -34z
m-3915 22 c0 -2 -10 -12 -22 -23 l-23 -19 19 23 c18 21 26 27 26 19z m-55 -47
c-3 -5 -12 -10 -18 -10 -7 0 -6 4 3 10 19 12 23 12 15 0z m3890 -30 c3 -5 -1
-10 -10 -10 -9 0 -13 5 -10 10 3 6 8 10 10 10 2 0 7 -4 10 -10z m-3935 -5 c0
-11 -66 -45 -87 -45 -34 0 -28 20 7 27 17 3 33 10 36 14 5 10 44 13 44 4z
m-2152 -33 c23 -18 23 -18 3 -36 -12 -11 -42 -20 -82 -23 l-61 -6 4 -104 c4
-82 2 -106 -9 -110 -7 -3 -12 -13 -11 -22 2 -9 -4 -16 -12 -16 -8 0 -14 6 -12
14 1 7 -1 18 -7 25 -14 17 -25 212 -12 220 6 4 45 9 87 12 77 5 123 19 108 34
-10 8 -107 -2 -139 -15 -18 -7 -18 -6 -5 8 15 16 70 35 105 36 11 0 30 -7 43
-17z m6399 -18 c-3 -3 -12 -4 -19 -1 -8 3 -5 6 6 6 11 1 17 -2 13 -5z m330
-60 c-3 -3 -12 -4 -19 -1 -8 3 -5 6 6 6 11 1 17 -2 13 -5z m-6742 -354 c-11
-5 -29 -9 -40 -9 -17 -1 -17 1 -5 9 8 5 26 9 40 9 23 0 23 -1 5 -9z m-156 -63
c6 -8 8 -17 4 -20 -18 -19 -100 4 -88 24 9 14 71 11 84 -4z m6371 -1944 c0 -7
-9 -13 -20 -13 -15 0 -19 6 -18 24 2 20 5 22 20 12 10 -6 18 -16 18 -23z m25
27 c3 -5 1 -10 -4 -10 -6 0 -11 5 -11 10 0 6 2 10 4 10 3 0 8 -4 11 -10z m459
-202 c-3 -18 -12 -66 -20 -107 -8 -40 -14 -85 -14 -99 0 -14 -2 -23 -6 -20 -3
3 -5 37 -4 74 0 38 1 95 1 127 -1 54 1 57 24 57 22 0 24 -3 19 -32z m-53 -301
c-6 -23 -15 -78 -21 -122 -6 -44 -15 -93 -20 -110 -7 -22 -8 -16 -2 25 4 30 7
78 7 107 0 28 3 46 7 40 3 -5 9 16 13 49 8 63 16 86 23 65 2 -7 -1 -31 -7 -54z
m-70 -400 c-13 -13 -15 11 -4 40 7 16 8 15 11 -6 2 -13 -1 -28 -7 -34z m-14
-64 c-3 -10 -5 -4 -5 12 0 17 2 24 5 18 2 -7 2 -21 0 -30z m-33 1 c3 -8 2 -12
-4 -9 -6 3 -10 10 -10 16 0 14 7 11 14 -7z m12 -147 c-8 -45 -18 -99 -22 -120
-3 -21 -8 -36 -10 -34 -3 2 6 64 18 138 12 74 24 126 26 116 2 -10 -3 -55 -12
-100z m-29 81 c-3 -8 -6 -5 -6 6 -1 11 2 17 5 13 3 -3 4 -12 1 -19z m-10 -60
c-3 -8 -6 -5 -6 6 -1 11 2 17 5 13 3 -3 4 -12 1 -19z m523 -1044 c0 -8 -5 -12
-10 -9 -6 4 -8 11 -5 16 9 14 15 11 15 -7z m-12 -101 c-2 -20 -9 -29 -25 -31
-13 -2 -23 2 -23 8 0 6 5 8 10 5 6 -4 10 5 10 19 0 17 6 26 16 26 11 0 14 -8
12 -27z m-30 -80 c6 -19 -33 -16 -49 3 -11 14 -9 15 16 12 16 -1 30 -9 33 -15z
m-30 -69 c38 -8 56 -53 37 -96 -11 -27 -29 -22 -44 12 -10 23 -10 34 -1 45 9
11 7 14 -11 17 -12 2 -24 9 -27 16 -4 14 3 15 46 6z m-54 -144 c36 -12 66 -23
66 -25 0 -9 -78 9 -110 26 -46 24 -36 23 44 -1z m23 -98 c-22 -24 -21 -32 3
-32 11 0 20 -4 20 -10 0 -5 -16 -10 -35 -10 -30 0 -35 3 -35 25 0 24 22 44 49
45 11 0 11 -4 -2 -18z m43 -2 c0 -5 -7 -10 -16 -10 -8 0 -12 5 -9 10 3 6 10
10 16 10 5 0 9 -4 9 -10z m7 -132 c-3 -7 -5 -2 -5 12 0 14 2 19 5 13 2 -7 2
-19 0 -25z m-6869 -341 c7 -35 -4 -47 -32 -34 -17 8 -21 14 -13 20 9 6 9 10 0
14 -24 9 -13 24 14 21 17 -2 29 -10 31 -21z m254 -36 c-11 -30 1 -134 16 -139
7 -2 10 -7 7 -11 -2 -5 7 -19 20 -31 14 -13 25 -29 25 -37 0 -8 13 -13 35 -13
34 0 35 1 35 41 0 36 2 40 15 29 9 -7 14 -19 11 -27 -3 -7 1 -13 9 -13 10 0
15 9 14 28 -3 43 0 52 16 52 10 0 15 -10 15 -29 0 -24 3 -28 20 -24 30 8 25
-23 -10 -58 -29 -29 -30 -30 -42 -9 -7 11 -16 20 -21 20 -4 0 -5 -5 -2 -10 4
-6 1 -17 -5 -25 -9 -11 -8 -18 4 -31 13 -12 14 -19 5 -30 -6 -8 -9 -20 -6 -28
3 -8 -2 -16 -14 -19 -17 -5 -19 -11 -13 -42 6 -34 5 -37 -17 -33 -17 2 -27 13
-34 35 -6 17 -18 40 -28 51 -9 10 -17 24 -17 30 0 8 -9 10 -25 6 -17 -4 -25
-2 -25 7 0 8 -13 28 -28 44 -15 17 -31 38 -35 48 -3 9 -13 17 -21 17 -8 0 -16
4 -18 10 -1 5 -26 18 -55 28 -63 22 -83 38 -76 60 4 14 3 15 -6 2 -5 -8 -13
-11 -17 -7 -4 3 -1 13 6 22 10 12 10 18 0 30 -10 12 -7 19 17 39 l28 25 8 -25
c7 -19 12 -22 22 -14 10 8 15 8 20 0 4 -6 19 -16 33 -21 22 -9 29 -6 44 13
l19 23 -6 -25 c-4 -15 0 -33 9 -45 21 -28 37 -8 41 50 2 26 9 51 16 56 18 11
21 6 11 -20z m-90 -3 c-2 -10 -6 -18 -7 -18 -1 0 -5 8 -7 18 -3 11 0 19 7 19
7 0 10 -8 7 -19z m-236 -19 c3 -6 1 -16 -6 -22 -10 -9 -11 -9 -5 2 4 8 2 17
-6 22 -9 6 -10 9 -2 9 6 0 15 -5 19 -11z m-89 -39 c12 0 14 -9 8 -48 l-6 -49
31 2 c17 1 42 -4 56 -11 13 -7 28 -12 32 -11 4 1 8 -10 10 -25 2 -14 10 -32
18 -38 8 -7 14 -27 14 -44 0 -23 9 -39 30 -58 37 -32 40 -65 5 -74 -24 -6
-121 20 -139 37 -26 24 -58 2 -210 -141 -88 -82 -163 -147 -167 -145 -4 3 -12
-2 -19 -10 -7 -8 -23 -15 -36 -15 -13 0 -24 -4 -24 -10 0 -5 -4 -10 -9 -10 -6
0 -3 16 4 34 9 21 11 37 5 41 -11 7 -3 32 19 56 21 26 21 69 -1 69 -10 0 -18
-4 -18 -10 0 -5 -13 -7 -30 -3 -23 4 -30 2 -30 -11 0 -9 -4 -16 -10 -16 -5 0
-10 -6 -10 -14 0 -8 -7 -13 -15 -12 -16 2 -44 26 -31 26 4 0 -4 14 -18 31 -14
17 -26 35 -26 40 0 5 -7 9 -15 9 -18 0 -21 55 -4 66 6 3 9 14 6 24 -2 10 -1
24 4 31 8 12 11 11 19 -1 7 -12 12 -12 22 -2 17 17 58 15 58 -3 0 -8 4 -15 10
-15 12 0 32 38 27 53 -5 17 77 97 101 97 11 0 25 7 32 15 7 8 19 15 26 15 8 0
19 9 26 19 6 10 17 17 25 14 7 -3 16 2 19 11 3 9 15 16 25 16 11 0 19 7 20 18
1 11 4 8 9 -8 l7 -25 11 28 c9 21 18 27 41 27 20 0 34 7 41 21 7 12 17 18 27
15 8 -3 21 -6 30 -6z m603 -28 c0 -7 -4 -10 -10 -7 -5 3 -10 16 -10 28 0 18 2
19 10 7 5 -8 10 -21 10 -28z m-37 -22 c-3 -11 -9 -17 -14 -14 -14 8 -10 34 5
34 9 0 12 -7 9 -20z m117 -4 c0 -3 -4 -8 -10 -11 -5 -3 -10 -1 -10 4 0 6 5 11
10 11 6 0 10 -2 10 -4z m-170 -42 c0 -13 -4 -24 -10 -24 -5 0 -10 14 -10 31 0
17 4 28 10 24 6 -3 10 -17 10 -31z m-248 -49 c0 -5 -5 -11 -11 -13 -6 -2 -11
4 -11 13 0 9 5 15 11 13 6 -2 11 -8 11 -13z m517 -133 c-1 -26 -2 -26 -8 3 -4
21 -9 26 -15 17 -12 -20 -36 5 -36 39 0 16 -4 29 -10 29 -6 0 -5 10 2 26 12
25 12 25 40 -31 15 -31 27 -69 27 -83z m-1619 -211 c0 -5 -6 -14 -14 -20 -10
-9 -15 -8 -19 3 -3 8 -1 17 6 20 19 7 27 7 27 -3z m395 -141 c17 -33 11 -56
-16 -71 -16 -8 -21 -5 -29 16 -13 33 -13 39 1 69 14 29 23 26 44 -14z m-68
-16 c-3 -3 -12 -4 -19 -1 -8 3 -5 6 6 6 11 1 17 -2 13 -5z"/>
<path d="M5841 11171 c-1 -27 2 -32 11 -23 8 8 8 17 0 34 -10 22 -11 21 -11
-11z"/>
<path d="M6082 11018 c1 -49 2 -53 5 -21 4 39 6 42 36 45 l32 3 -34 18 c-19 9
-36 17 -38 17 -1 0 -2 -28 -1 -62z"/>
<path d="M5892 11058 c-8 -8 -9 -15 -1 -25 17 -20 29 -15 29 12 0 27 -9 32
-28 13z"/>
<path d="M5866 10975 c4 -8 17 -15 31 -15 22 0 24 2 13 15 -7 8 -21 15 -31 15
-12 0 -16 -5 -13 -15z"/>
<path d="M5820 10922 c0 -10 86 -9 96 1 4 4 -16 7 -44 7 -29 0 -52 -4 -52 -8z"/>
<path d="M6325 10880 c-3 -6 1 -7 9 -4 18 7 21 14 7 14 -6 0 -13 -4 -16 -10z"/>
<path d="M6350 10865 c-6 -8 -10 -19 -8 -26 2 -6 9 0 16 15 13 29 10 33 -8 11z"/>
<path d="M6060 10836 c0 -2 7 -7 16 -10 8 -3 12 -2 9 4 -6 10 -25 14 -25 6z"/>
<path d="M5600 10731 c0 -6 6 -11 14 -11 9 0 16 -13 19 -32 4 -27 4 -25 3 7
-1 29 -6 41 -18 43 -10 2 -18 -1 -18 -7z"/>
<path d="M6738 11123 c12 -2 32 -2 45 0 12 2 2 4 -23 4 -25 0 -35 -2 -22 -4z"/>
<path d="M6500 11019 c0 -11 5 -17 10 -14 6 3 10 13 10 21 0 8 -4 14 -10 14
-5 0 -10 -9 -10 -21z"/>
<path d="M6830 10854 c0 -8 5 -12 10 -9 6 4 8 11 5 16 -9 14 -15 11 -15 -7z"/>
<path d="M6830 10770 c0 -5 5 -10 10 -10 6 0 10 5 10 10 0 6 -4 10 -10 10 -5
0 -10 -4 -10 -10z"/>
<path d="M7093 10723 c15 -2 39 -2 55 0 15 2 2 4 -28 4 -30 0 -43 -2 -27 -4z"/>
<path d="M6745 10670 c3 -5 -2 -10 -12 -10 -15 0 -16 -2 -3 -10 9 -6 17 -5 22
3 11 17 10 27 -3 27 -5 0 -7 -4 -4 -10z"/>
<path d="M7903 9720 c0 -25 2 -35 4 -22 2 12 2 32 0 45 -2 12 -4 2 -4 -23z"/>
<path d="M1365 2110 c-3 -5 -1 -10 4 -10 6 0 11 5 11 10 0 6 -2 10 -4 10 -3 0
-8 -4 -11 -10z"/>
<path d="M1580 1917 c0 -8 6 -20 13 -26 11 -8 13 -6 12 11 -2 24 -25 38 -25
15z"/>
<path d="M1041 1964 c0 -11 3 -14 6 -6 3 7 2 16 -1 19 -3 4 -6 -2 -5 -13z"/>
<path d="M715 1687 c-20 -25 -35 -57 -27 -57 4 0 17 7 29 15 12 8 32 14 45 13
15 -2 23 2 23 12 0 8 -7 14 -17 12 -9 -1 -19 2 -23 8 -8 13 -18 12 -30 -3z"/>
<path d="M830 1665 c0 -8 5 -15 10 -15 6 0 10 7 10 15 0 8 -4 15 -10 15 -5 0
-10 -7 -10 -15z"/>
<path d="M910 1600 c-9 -6 -10 -10 -3 -10 6 0 15 5 18 10 8 12 4 12 -15 0z"/>
</g>
</svg>
